<mxfile host="app.diagrams.net" agent="Mozilla/5.0 (Windows NT 10.0; Win64; x64) AppleWebKit/537.36 (KHTML, like Gecko) Chrome/127.0.0.0 Safari/537.36 Edg/127.0.0.0" version="24.7.6">
  <diagram name="Trang-1" id="G-JYGhYFhfz9n_CZxaDi">
    <mxGraphModel dx="2894" dy="2288" grid="1" gridSize="10" guides="1" tooltips="1" connect="1" arrows="1" fold="1" page="1" pageScale="1" pageWidth="827" pageHeight="1169" math="0" shadow="0">
      <root>
        <mxCell id="0" />
        <mxCell id="1" parent="0" />
        <mxCell id="9dLmW2tlzqYbC5h6t_Pl-1" value="Admin" style="shape=umlActor;verticalLabelPosition=bottom;verticalAlign=top;html=1;outlineConnect=0;" vertex="1" parent="1">
          <mxGeometry x="-453" y="-684" width="33" height="70" as="geometry" />
        </mxCell>
        <mxCell id="9dLmW2tlzqYbC5h6t_Pl-4" value="Employee" style="shape=umlActor;verticalLabelPosition=bottom;verticalAlign=top;html=1;outlineConnect=0;" vertex="1" parent="1">
          <mxGeometry x="470" y="-614" width="31.5" height="60" as="geometry" />
        </mxCell>
        <mxCell id="9dLmW2tlzqYbC5h6t_Pl-36" value="Delivery Manager" style="shape=umlActor;verticalLabelPosition=bottom;verticalAlign=top;html=1;outlineConnect=0;" vertex="1" parent="1">
          <mxGeometry x="456" y="-170" width="34" height="70" as="geometry" />
        </mxCell>
        <mxCell id="9dLmW2tlzqYbC5h6t_Pl-73" value="" style="endArrow=none;html=1;rounded=0;entryX=0;entryY=0.5;entryDx=0;entryDy=0;" edge="1" parent="1" source="9dLmW2tlzqYbC5h6t_Pl-1" target="9dLmW2tlzqYbC5h6t_Pl-2">
          <mxGeometry width="50" height="50" relative="1" as="geometry">
            <mxPoint x="-290" y="-190" as="sourcePoint" />
            <mxPoint x="-240" y="-240" as="targetPoint" />
            <Array as="points" />
          </mxGeometry>
        </mxCell>
        <mxCell id="9dLmW2tlzqYbC5h6t_Pl-75" value="" style="endArrow=none;html=1;rounded=0;" edge="1" parent="1" source="9dLmW2tlzqYbC5h6t_Pl-1" target="9dLmW2tlzqYbC5h6t_Pl-50">
          <mxGeometry width="50" height="50" relative="1" as="geometry">
            <mxPoint x="-411" y="-25" as="sourcePoint" />
            <mxPoint x="-268.4517156701677" y="-222.33329249006124" as="targetPoint" />
            <Array as="points" />
          </mxGeometry>
        </mxCell>
        <mxCell id="9dLmW2tlzqYbC5h6t_Pl-79" value="" style="endArrow=none;html=1;rounded=0;" edge="1" parent="1" source="9dLmW2tlzqYbC5h6t_Pl-4" target="9dLmW2tlzqYbC5h6t_Pl-2">
          <mxGeometry width="50" height="50" relative="1" as="geometry">
            <mxPoint x="-421" y="-25" as="sourcePoint" />
            <mxPoint x="-40" y="-424" as="targetPoint" />
            <Array as="points">
              <mxPoint x="420" y="-660" />
            </Array>
          </mxGeometry>
        </mxCell>
        <mxCell id="9dLmW2tlzqYbC5h6t_Pl-84" value="" style="swimlane;startSize=0;movable=1;resizable=1;rotatable=1;deletable=1;editable=1;locked=0;connectable=1;" vertex="1" parent="1">
          <mxGeometry x="-340" y="-830" width="720" height="1010" as="geometry">
            <mxRectangle x="-320" y="-780" width="50" height="40" as="alternateBounds" />
          </mxGeometry>
        </mxCell>
        <mxCell id="9dLmW2tlzqYbC5h6t_Pl-2" value="Login" style="ellipse;whiteSpace=wrap;html=1;" vertex="1" parent="9dLmW2tlzqYbC5h6t_Pl-84">
          <mxGeometry x="270" y="120" width="135" height="70" as="geometry" />
        </mxCell>
        <mxCell id="9dLmW2tlzqYbC5h6t_Pl-56" value="Project Managemnet" style="ellipse;whiteSpace=wrap;html=1;" vertex="1" parent="9dLmW2tlzqYbC5h6t_Pl-84">
          <mxGeometry x="600" y="390" width="110" height="50" as="geometry" />
        </mxCell>
        <mxCell id="9dLmW2tlzqYbC5h6t_Pl-49" value="User Managemnet" style="ellipse;whiteSpace=wrap;html=1;" vertex="1" parent="9dLmW2tlzqYbC5h6t_Pl-84">
          <mxGeometry x="25" y="230" width="95" height="60" as="geometry" />
        </mxCell>
        <mxCell id="9dLmW2tlzqYbC5h6t_Pl-50" value="Team Managemnet" style="ellipse;whiteSpace=wrap;html=1;" vertex="1" parent="9dLmW2tlzqYbC5h6t_Pl-84">
          <mxGeometry x="161.5" y="180" width="90" height="60" as="geometry" />
        </mxCell>
        <mxCell id="9dLmW2tlzqYbC5h6t_Pl-101" style="edgeStyle=orthogonalEdgeStyle;rounded=0;orthogonalLoop=1;jettySize=auto;html=1;exitX=0.5;exitY=1;exitDx=0;exitDy=0;" edge="1" parent="9dLmW2tlzqYbC5h6t_Pl-84">
          <mxGeometry relative="1" as="geometry">
            <mxPoint x="70" y="260" as="sourcePoint" />
            <mxPoint x="70" y="260" as="targetPoint" />
          </mxGeometry>
        </mxCell>
        <mxCell id="9dLmW2tlzqYbC5h6t_Pl-53" style="edgeStyle=orthogonalEdgeStyle;rounded=0;orthogonalLoop=1;jettySize=auto;html=1;exitX=0.5;exitY=1;exitDx=0;exitDy=0;" edge="1" parent="9dLmW2tlzqYbC5h6t_Pl-84">
          <mxGeometry relative="1" as="geometry">
            <mxPoint x="300" y="480" as="sourcePoint" />
            <mxPoint x="300" y="480" as="targetPoint" />
          </mxGeometry>
        </mxCell>
        <mxCell id="9dLmW2tlzqYbC5h6t_Pl-69" style="edgeStyle=orthogonalEdgeStyle;rounded=0;orthogonalLoop=1;jettySize=auto;html=1;exitX=0.5;exitY=1;exitDx=0;exitDy=0;" edge="1" parent="9dLmW2tlzqYbC5h6t_Pl-84">
          <mxGeometry relative="1" as="geometry">
            <mxPoint x="300" y="480" as="sourcePoint" />
            <mxPoint x="300" y="480" as="targetPoint" />
          </mxGeometry>
        </mxCell>
        <mxCell id="9dLmW2tlzqYbC5h6t_Pl-98" value="Forgot Passoword" style="ellipse;whiteSpace=wrap;html=1;" vertex="1" parent="9dLmW2tlzqYbC5h6t_Pl-84">
          <mxGeometry x="30" y="60" width="90" height="50" as="geometry" />
        </mxCell>
        <mxCell id="9dLmW2tlzqYbC5h6t_Pl-140" value="Register" style="ellipse;whiteSpace=wrap;html=1;" vertex="1" parent="9dLmW2tlzqYbC5h6t_Pl-84">
          <mxGeometry x="480" y="10" width="90" height="50" as="geometry" />
        </mxCell>
        <mxCell id="9dLmW2tlzqYbC5h6t_Pl-141" value="Extends" style="endArrow=block;endSize=16;endFill=0;html=1;rounded=0;" edge="1" parent="9dLmW2tlzqYbC5h6t_Pl-84" source="9dLmW2tlzqYbC5h6t_Pl-140" target="9dLmW2tlzqYbC5h6t_Pl-2">
          <mxGeometry width="160" relative="1" as="geometry">
            <mxPoint x="460" y="150" as="sourcePoint" />
            <mxPoint x="620" y="150" as="targetPoint" />
          </mxGeometry>
        </mxCell>
        <mxCell id="9dLmW2tlzqYbC5h6t_Pl-142" value="Extends" style="endArrow=block;endSize=16;endFill=0;html=1;rounded=0;" edge="1" parent="9dLmW2tlzqYbC5h6t_Pl-84" source="9dLmW2tlzqYbC5h6t_Pl-98" target="9dLmW2tlzqYbC5h6t_Pl-2">
          <mxGeometry width="160" relative="1" as="geometry">
            <mxPoint x="452" y="82" as="sourcePoint" />
            <mxPoint x="369" y="127" as="targetPoint" />
          </mxGeometry>
        </mxCell>
        <mxCell id="9dLmW2tlzqYbC5h6t_Pl-171" value="Logout" style="ellipse;whiteSpace=wrap;html=1;" vertex="1" parent="9dLmW2tlzqYbC5h6t_Pl-84">
          <mxGeometry x="570" y="80" width="90" height="50" as="geometry" />
        </mxCell>
        <mxCell id="9dLmW2tlzqYbC5h6t_Pl-172" value="Extends" style="endArrow=block;endSize=16;endFill=0;html=1;rounded=0;" edge="1" parent="9dLmW2tlzqYbC5h6t_Pl-84" source="9dLmW2tlzqYbC5h6t_Pl-171" target="9dLmW2tlzqYbC5h6t_Pl-2">
          <mxGeometry width="160" relative="1" as="geometry">
            <mxPoint x="296" y="69" as="sourcePoint" />
            <mxPoint x="319" y="121" as="targetPoint" />
          </mxGeometry>
        </mxCell>
        <mxCell id="9dLmW2tlzqYbC5h6t_Pl-173" value="Enter Confirm Code" style="ellipse;whiteSpace=wrap;html=1;" vertex="1" parent="9dLmW2tlzqYbC5h6t_Pl-84">
          <mxGeometry x="225" y="10" width="90" height="50" as="geometry" />
        </mxCell>
        <mxCell id="9dLmW2tlzqYbC5h6t_Pl-177" value="Extends" style="endArrow=block;endSize=16;endFill=0;html=1;rounded=0;" edge="1" parent="9dLmW2tlzqYbC5h6t_Pl-84" source="9dLmW2tlzqYbC5h6t_Pl-173" target="9dLmW2tlzqYbC5h6t_Pl-2">
          <mxGeometry width="160" relative="1" as="geometry">
            <mxPoint x="252" y="63" as="sourcePoint" />
            <mxPoint x="128" y="87" as="targetPoint" />
          </mxGeometry>
        </mxCell>
        <mxCell id="9dLmW2tlzqYbC5h6t_Pl-185" value="Add Project Design" style="ellipse;whiteSpace=wrap;html=1;" vertex="1" parent="9dLmW2tlzqYbC5h6t_Pl-84">
          <mxGeometry x="540" y="305" width="120" height="50" as="geometry" />
        </mxCell>
        <mxCell id="9dLmW2tlzqYbC5h6t_Pl-187" value="Action Design" style="ellipse;whiteSpace=wrap;html=1;" vertex="1" parent="9dLmW2tlzqYbC5h6t_Pl-84">
          <mxGeometry x="300" y="245" width="130" height="60" as="geometry" />
        </mxCell>
        <mxCell id="9dLmW2tlzqYbC5h6t_Pl-190" value="Approve Design" style="ellipse;whiteSpace=wrap;html=1;" vertex="1" parent="9dLmW2tlzqYbC5h6t_Pl-84">
          <mxGeometry x="130" y="340" width="100" height="40" as="geometry" />
        </mxCell>
        <mxCell id="9dLmW2tlzqYbC5h6t_Pl-189" value="Reject Design" style="ellipse;whiteSpace=wrap;html=1;" vertex="1" parent="9dLmW2tlzqYbC5h6t_Pl-84">
          <mxGeometry x="130" y="270" width="100" height="40" as="geometry" />
        </mxCell>
        <mxCell id="9dLmW2tlzqYbC5h6t_Pl-207" value="" style="endArrow=block;dashed=1;endFill=0;endSize=12;html=1;rounded=0;" edge="1" parent="9dLmW2tlzqYbC5h6t_Pl-84" source="9dLmW2tlzqYbC5h6t_Pl-98" target="9dLmW2tlzqYbC5h6t_Pl-173">
          <mxGeometry width="160" relative="1" as="geometry">
            <mxPoint x="480" y="420" as="sourcePoint" />
            <mxPoint x="640" y="420" as="targetPoint" />
          </mxGeometry>
        </mxCell>
        <mxCell id="9dLmW2tlzqYbC5h6t_Pl-208" value="&amp;lt;&amp;lt;Include&amp;gt;&amp;gt;" style="edgeLabel;html=1;align=center;verticalAlign=middle;resizable=0;points=[];" vertex="1" connectable="0" parent="9dLmW2tlzqYbC5h6t_Pl-207">
          <mxGeometry x="-0.0642" y="-4" relative="1" as="geometry">
            <mxPoint as="offset" />
          </mxGeometry>
        </mxCell>
        <mxCell id="9dLmW2tlzqYbC5h6t_Pl-209" value="" style="endArrow=block;dashed=1;endFill=0;endSize=12;html=1;rounded=0;entryX=1;entryY=0.5;entryDx=0;entryDy=0;" edge="1" parent="9dLmW2tlzqYbC5h6t_Pl-84" source="9dLmW2tlzqYbC5h6t_Pl-140" target="9dLmW2tlzqYbC5h6t_Pl-173">
          <mxGeometry width="160" relative="1" as="geometry">
            <mxPoint x="126" y="85" as="sourcePoint" />
            <mxPoint x="239" y="55" as="targetPoint" />
          </mxGeometry>
        </mxCell>
        <mxCell id="9dLmW2tlzqYbC5h6t_Pl-210" value="&amp;lt;&amp;lt;Include&amp;gt;&amp;gt;" style="edgeLabel;html=1;align=center;verticalAlign=middle;resizable=0;points=[];" vertex="1" connectable="0" parent="9dLmW2tlzqYbC5h6t_Pl-209">
          <mxGeometry x="-0.0642" y="-4" relative="1" as="geometry">
            <mxPoint as="offset" />
          </mxGeometry>
        </mxCell>
        <mxCell id="9dLmW2tlzqYbC5h6t_Pl-249" value="" style="endArrow=block;endSize=16;endFill=0;html=1;rounded=0;" edge="1" parent="9dLmW2tlzqYbC5h6t_Pl-84" source="9dLmW2tlzqYbC5h6t_Pl-189" target="9dLmW2tlzqYbC5h6t_Pl-187">
          <mxGeometry width="160" relative="1" as="geometry">
            <mxPoint x="334" y="1010" as="sourcePoint" />
            <mxPoint x="299" y="820" as="targetPoint" />
          </mxGeometry>
        </mxCell>
        <mxCell id="9dLmW2tlzqYbC5h6t_Pl-250" value="" style="endArrow=block;endSize=16;endFill=0;html=1;rounded=0;" edge="1" parent="9dLmW2tlzqYbC5h6t_Pl-84" source="9dLmW2tlzqYbC5h6t_Pl-190" target="9dLmW2tlzqYbC5h6t_Pl-187">
          <mxGeometry width="160" relative="1" as="geometry">
            <mxPoint x="261" y="940" as="sourcePoint" />
            <mxPoint x="264" y="820" as="targetPoint" />
          </mxGeometry>
        </mxCell>
        <mxCell id="9dLmW2tlzqYbC5h6t_Pl-269" value="" style="endArrow=block;dashed=1;endFill=0;endSize=12;html=1;rounded=0;" edge="1" parent="9dLmW2tlzqYbC5h6t_Pl-84" source="9dLmW2tlzqYbC5h6t_Pl-187" target="9dLmW2tlzqYbC5h6t_Pl-185">
          <mxGeometry width="160" relative="1" as="geometry">
            <mxPoint x="431" y="425" as="sourcePoint" />
            <mxPoint x="560" y="275" as="targetPoint" />
          </mxGeometry>
        </mxCell>
        <mxCell id="9dLmW2tlzqYbC5h6t_Pl-270" value="&amp;lt;&amp;lt;Include&amp;gt;&amp;gt;" style="edgeLabel;html=1;align=center;verticalAlign=middle;resizable=0;points=[];" vertex="1" connectable="0" parent="9dLmW2tlzqYbC5h6t_Pl-269">
          <mxGeometry x="-0.0642" y="-4" relative="1" as="geometry">
            <mxPoint as="offset" />
          </mxGeometry>
        </mxCell>
        <mxCell id="9dLmW2tlzqYbC5h6t_Pl-284" value="Print Project Start" style="ellipse;whiteSpace=wrap;html=1;" vertex="1" parent="9dLmW2tlzqYbC5h6t_Pl-84">
          <mxGeometry x="251.5" y="520" width="130" height="70" as="geometry" />
        </mxCell>
        <mxCell id="9dLmW2tlzqYbC5h6t_Pl-285" value="Enter Resource For PrintJobs" style="ellipse;whiteSpace=wrap;html=1;" vertex="1" parent="9dLmW2tlzqYbC5h6t_Pl-84">
          <mxGeometry x="470" y="630" width="100" height="50" as="geometry" />
        </mxCell>
        <mxCell id="9dLmW2tlzqYbC5h6t_Pl-288" value="" style="endArrow=block;dashed=1;endFill=0;endSize=12;html=1;rounded=0;entryX=0;entryY=0.5;entryDx=0;entryDy=0;" edge="1" parent="9dLmW2tlzqYbC5h6t_Pl-84" source="9dLmW2tlzqYbC5h6t_Pl-284" target="9dLmW2tlzqYbC5h6t_Pl-285">
          <mxGeometry width="160" relative="1" as="geometry">
            <mxPoint x="130" y="622" as="sourcePoint" />
            <mxPoint x="219" y="633" as="targetPoint" />
          </mxGeometry>
        </mxCell>
        <mxCell id="9dLmW2tlzqYbC5h6t_Pl-289" value="&amp;lt;&amp;lt;Include&amp;gt;&amp;gt;" style="edgeLabel;html=1;align=center;verticalAlign=middle;resizable=0;points=[];" vertex="1" connectable="0" parent="9dLmW2tlzqYbC5h6t_Pl-288">
          <mxGeometry x="-0.0642" y="-4" relative="1" as="geometry">
            <mxPoint as="offset" />
          </mxGeometry>
        </mxCell>
        <mxCell id="9dLmW2tlzqYbC5h6t_Pl-303" value="Select delivery Employee For project" style="ellipse;whiteSpace=wrap;html=1;" vertex="1" parent="9dLmW2tlzqYbC5h6t_Pl-84">
          <mxGeometry x="241.5" y="685" width="130" height="75" as="geometry" />
        </mxCell>
        <mxCell id="9dLmW2tlzqYbC5h6t_Pl-308" value="Receive&amp;nbsp;Delivery Order" style="ellipse;whiteSpace=wrap;html=1;" vertex="1" parent="9dLmW2tlzqYbC5h6t_Pl-84">
          <mxGeometry x="510" y="760" width="125" height="70" as="geometry" />
        </mxCell>
        <mxCell id="9dLmW2tlzqYbC5h6t_Pl-312" value="" style="endArrow=block;dashed=1;endFill=0;endSize=12;html=1;rounded=0;" edge="1" parent="9dLmW2tlzqYbC5h6t_Pl-84" source="9dLmW2tlzqYbC5h6t_Pl-284" target="9dLmW2tlzqYbC5h6t_Pl-187">
          <mxGeometry width="160" relative="1" as="geometry">
            <mxPoint x="234" y="515" as="sourcePoint" />
            <mxPoint x="376" y="500" as="targetPoint" />
          </mxGeometry>
        </mxCell>
        <mxCell id="9dLmW2tlzqYbC5h6t_Pl-313" value="&amp;lt;&amp;lt;Include&amp;gt;&amp;gt;" style="edgeLabel;html=1;align=center;verticalAlign=middle;resizable=0;points=[];" vertex="1" connectable="0" parent="9dLmW2tlzqYbC5h6t_Pl-312">
          <mxGeometry x="-0.0642" y="-4" relative="1" as="geometry">
            <mxPoint as="offset" />
          </mxGeometry>
        </mxCell>
        <mxCell id="9dLmW2tlzqYbC5h6t_Pl-315" value="" style="endArrow=block;dashed=1;endFill=0;endSize=12;html=1;rounded=0;" edge="1" parent="9dLmW2tlzqYbC5h6t_Pl-84" source="9dLmW2tlzqYbC5h6t_Pl-303" target="9dLmW2tlzqYbC5h6t_Pl-284">
          <mxGeometry width="160" relative="1" as="geometry">
            <mxPoint x="336" y="479" as="sourcePoint" />
            <mxPoint x="207" y="510" as="targetPoint" />
          </mxGeometry>
        </mxCell>
        <mxCell id="9dLmW2tlzqYbC5h6t_Pl-316" value="&amp;lt;&amp;lt;Include&amp;gt;&amp;gt;" style="edgeLabel;html=1;align=center;verticalAlign=middle;resizable=0;points=[];" vertex="1" connectable="0" parent="9dLmW2tlzqYbC5h6t_Pl-315">
          <mxGeometry x="-0.0642" y="-4" relative="1" as="geometry">
            <mxPoint as="offset" />
          </mxGeometry>
        </mxCell>
        <mxCell id="9dLmW2tlzqYbC5h6t_Pl-317" value="" style="endArrow=block;dashed=1;endFill=0;endSize=12;html=1;rounded=0;" edge="1" parent="9dLmW2tlzqYbC5h6t_Pl-84" source="9dLmW2tlzqYbC5h6t_Pl-308" target="9dLmW2tlzqYbC5h6t_Pl-303">
          <mxGeometry width="160" relative="1" as="geometry">
            <mxPoint x="274" y="604" as="sourcePoint" />
            <mxPoint x="367" y="497" as="targetPoint" />
          </mxGeometry>
        </mxCell>
        <mxCell id="9dLmW2tlzqYbC5h6t_Pl-318" value="&amp;lt;&amp;lt;Include&amp;gt;&amp;gt;" style="edgeLabel;html=1;align=center;verticalAlign=middle;resizable=0;points=[];" vertex="1" connectable="0" parent="9dLmW2tlzqYbC5h6t_Pl-317">
          <mxGeometry x="-0.0642" y="-4" relative="1" as="geometry">
            <mxPoint as="offset" />
          </mxGeometry>
        </mxCell>
        <mxCell id="9dLmW2tlzqYbC5h6t_Pl-319" value="Create Project" style="ellipse;whiteSpace=wrap;html=1;" vertex="1" parent="9dLmW2tlzqYbC5h6t_Pl-84">
          <mxGeometry x="427.5" y="440" width="140" height="80" as="geometry" />
        </mxCell>
        <mxCell id="9dLmW2tlzqYbC5h6t_Pl-320" value="" style="endArrow=block;dashed=1;endFill=0;endSize=12;html=1;rounded=0;" edge="1" parent="9dLmW2tlzqYbC5h6t_Pl-84" source="9dLmW2tlzqYbC5h6t_Pl-187" target="9dLmW2tlzqYbC5h6t_Pl-319">
          <mxGeometry width="160" relative="1" as="geometry">
            <mxPoint x="363" y="600" as="sourcePoint" />
            <mxPoint x="383" y="520" as="targetPoint" />
          </mxGeometry>
        </mxCell>
        <mxCell id="9dLmW2tlzqYbC5h6t_Pl-321" value="&amp;lt;&amp;lt;Include&amp;gt;&amp;gt;" style="edgeLabel;html=1;align=center;verticalAlign=middle;resizable=0;points=[];" vertex="1" connectable="0" parent="9dLmW2tlzqYbC5h6t_Pl-320">
          <mxGeometry x="-0.0642" y="-4" relative="1" as="geometry">
            <mxPoint as="offset" />
          </mxGeometry>
        </mxCell>
        <mxCell id="9dLmW2tlzqYbC5h6t_Pl-323" value="Update status Delivery Order" style="ellipse;whiteSpace=wrap;html=1;" vertex="1" parent="9dLmW2tlzqYbC5h6t_Pl-84">
          <mxGeometry x="330" y="890" width="120" height="70" as="geometry" />
        </mxCell>
        <mxCell id="9dLmW2tlzqYbC5h6t_Pl-325" value="" style="endArrow=block;dashed=1;endFill=0;endSize=12;html=1;rounded=0;" edge="1" parent="9dLmW2tlzqYbC5h6t_Pl-84" source="9dLmW2tlzqYbC5h6t_Pl-323" target="9dLmW2tlzqYbC5h6t_Pl-308">
          <mxGeometry width="160" relative="1" as="geometry">
            <mxPoint x="512" y="825" as="sourcePoint" />
            <mxPoint x="338" y="797" as="targetPoint" />
          </mxGeometry>
        </mxCell>
        <mxCell id="9dLmW2tlzqYbC5h6t_Pl-326" value="&amp;lt;&amp;lt;Include&amp;gt;&amp;gt;" style="edgeLabel;html=1;align=center;verticalAlign=middle;resizable=0;points=[];" vertex="1" connectable="0" parent="9dLmW2tlzqYbC5h6t_Pl-325">
          <mxGeometry x="-0.0642" y="-4" relative="1" as="geometry">
            <mxPoint as="offset" />
          </mxGeometry>
        </mxCell>
        <mxCell id="9dLmW2tlzqYbC5h6t_Pl-327" value="Status Delivered" style="ellipse;whiteSpace=wrap;html=1;" vertex="1" parent="9dLmW2tlzqYbC5h6t_Pl-84">
          <mxGeometry x="170" y="860" width="100" height="40" as="geometry" />
        </mxCell>
        <mxCell id="9dLmW2tlzqYbC5h6t_Pl-328" value="Status Refused" style="ellipse;whiteSpace=wrap;html=1;" vertex="1" parent="9dLmW2tlzqYbC5h6t_Pl-84">
          <mxGeometry x="200" y="940" width="100" height="40" as="geometry" />
        </mxCell>
        <mxCell id="9dLmW2tlzqYbC5h6t_Pl-329" value="Status Returned" style="ellipse;whiteSpace=wrap;html=1;" vertex="1" parent="9dLmW2tlzqYbC5h6t_Pl-84">
          <mxGeometry x="490" y="930" width="100" height="40" as="geometry" />
        </mxCell>
        <mxCell id="9dLmW2tlzqYbC5h6t_Pl-330" value="" style="endArrow=block;endSize=16;endFill=0;html=1;rounded=0;" edge="1" parent="9dLmW2tlzqYbC5h6t_Pl-84" source="9dLmW2tlzqYbC5h6t_Pl-327" target="9dLmW2tlzqYbC5h6t_Pl-323">
          <mxGeometry width="160" relative="1" as="geometry">
            <mxPoint x="290" y="851" as="sourcePoint" />
            <mxPoint x="357" y="830" as="targetPoint" />
          </mxGeometry>
        </mxCell>
        <mxCell id="9dLmW2tlzqYbC5h6t_Pl-331" value="" style="endArrow=block;endSize=16;endFill=0;html=1;rounded=0;exitX=1;exitY=0.5;exitDx=0;exitDy=0;" edge="1" parent="9dLmW2tlzqYbC5h6t_Pl-84" source="9dLmW2tlzqYbC5h6t_Pl-328" target="9dLmW2tlzqYbC5h6t_Pl-323">
          <mxGeometry width="160" relative="1" as="geometry">
            <mxPoint x="293" y="890" as="sourcePoint" />
            <mxPoint x="420" y="921" as="targetPoint" />
          </mxGeometry>
        </mxCell>
        <mxCell id="9dLmW2tlzqYbC5h6t_Pl-332" value="" style="endArrow=block;endSize=16;endFill=0;html=1;rounded=0;" edge="1" parent="9dLmW2tlzqYbC5h6t_Pl-84" source="9dLmW2tlzqYbC5h6t_Pl-329" target="9dLmW2tlzqYbC5h6t_Pl-323">
          <mxGeometry width="160" relative="1" as="geometry">
            <mxPoint x="303" y="900" as="sourcePoint" />
            <mxPoint x="430" y="931" as="targetPoint" />
          </mxGeometry>
        </mxCell>
        <mxCell id="9dLmW2tlzqYbC5h6t_Pl-333" value="Account Management" style="ellipse;whiteSpace=wrap;html=1;" vertex="1" parent="9dLmW2tlzqYbC5h6t_Pl-84">
          <mxGeometry x="440" y="190" width="115" height="50" as="geometry" />
        </mxCell>
        <mxCell id="9dLmW2tlzqYbC5h6t_Pl-340" value="Send Notify" style="ellipse;whiteSpace=wrap;html=1;" vertex="1" parent="9dLmW2tlzqYbC5h6t_Pl-84">
          <mxGeometry x="30" y="560" width="95" height="60" as="geometry" />
        </mxCell>
        <mxCell id="9dLmW2tlzqYbC5h6t_Pl-343" value="" style="endArrow=block;dashed=1;endFill=0;endSize=12;html=1;rounded=0;" edge="1" parent="9dLmW2tlzqYbC5h6t_Pl-84" source="9dLmW2tlzqYbC5h6t_Pl-340" target="9dLmW2tlzqYbC5h6t_Pl-187">
          <mxGeometry width="160" relative="1" as="geometry">
            <mxPoint x="131" y="609" as="sourcePoint" />
            <mxPoint x="208" y="440" as="targetPoint" />
          </mxGeometry>
        </mxCell>
        <mxCell id="9dLmW2tlzqYbC5h6t_Pl-344" value="&amp;lt;&amp;lt;Include&amp;gt;&amp;gt;" style="edgeLabel;html=1;align=center;verticalAlign=middle;resizable=0;points=[];" vertex="1" connectable="0" parent="9dLmW2tlzqYbC5h6t_Pl-343">
          <mxGeometry x="-0.0642" y="-4" relative="1" as="geometry">
            <mxPoint as="offset" />
          </mxGeometry>
        </mxCell>
        <mxCell id="9dLmW2tlzqYbC5h6t_Pl-345" value="" style="endArrow=block;dashed=1;endFill=0;endSize=12;html=1;rounded=0;" edge="1" parent="9dLmW2tlzqYbC5h6t_Pl-84" source="9dLmW2tlzqYbC5h6t_Pl-340" target="9dLmW2tlzqYbC5h6t_Pl-323">
          <mxGeometry width="160" relative="1" as="geometry">
            <mxPoint x="121" y="584" as="sourcePoint" />
            <mxPoint x="253" y="439" as="targetPoint" />
          </mxGeometry>
        </mxCell>
        <mxCell id="9dLmW2tlzqYbC5h6t_Pl-346" value="&amp;lt;&amp;lt;Include&amp;gt;&amp;gt;" style="edgeLabel;html=1;align=center;verticalAlign=middle;resizable=0;points=[];" vertex="1" connectable="0" parent="9dLmW2tlzqYbC5h6t_Pl-345">
          <mxGeometry x="-0.0642" y="-4" relative="1" as="geometry">
            <mxPoint as="offset" />
          </mxGeometry>
        </mxCell>
        <mxCell id="9dLmW2tlzqYbC5h6t_Pl-87" value="Design Employee" style="shape=umlActor;verticalLabelPosition=bottom;verticalAlign=top;html=1;outlineConnect=0;" vertex="1" parent="1">
          <mxGeometry x="460" y="-430" width="30" height="60" as="geometry" />
        </mxCell>
        <mxCell id="9dLmW2tlzqYbC5h6t_Pl-88" value="Sales Employee" style="shape=umlActor;verticalLabelPosition=bottom;verticalAlign=top;html=1;outlineConnect=0;" vertex="1" parent="1">
          <mxGeometry x="450" y="-270" width="30" height="60" as="geometry" />
        </mxCell>
        <mxCell id="9dLmW2tlzqYbC5h6t_Pl-113" value="" style="endArrow=none;html=1;rounded=0;" edge="1" parent="1" source="9dLmW2tlzqYbC5h6t_Pl-1" target="9dLmW2tlzqYbC5h6t_Pl-49">
          <mxGeometry width="50" height="50" relative="1" as="geometry">
            <mxPoint x="-470" y="-135" as="sourcePoint" />
            <mxPoint x="-10" y="-483" as="targetPoint" />
            <Array as="points" />
          </mxGeometry>
        </mxCell>
        <mxCell id="9dLmW2tlzqYbC5h6t_Pl-178" value="" style="endArrow=none;html=1;rounded=0;" edge="1" parent="1" source="9dLmW2tlzqYbC5h6t_Pl-88" target="9dLmW2tlzqYbC5h6t_Pl-56">
          <mxGeometry width="50" height="50" relative="1" as="geometry">
            <mxPoint x="-450" y="-118" as="sourcePoint" />
            <mxPoint x="-140" y="-94" as="targetPoint" />
            <Array as="points" />
          </mxGeometry>
        </mxCell>
        <mxCell id="9dLmW2tlzqYbC5h6t_Pl-184" value="" style="endArrow=none;html=1;rounded=0;" edge="1" parent="1" source="9dLmW2tlzqYbC5h6t_Pl-87" target="9dLmW2tlzqYbC5h6t_Pl-185">
          <mxGeometry width="50" height="50" relative="1" as="geometry">
            <mxPoint x="424" y="-337" as="sourcePoint" />
            <mxPoint x="138" y="-288" as="targetPoint" />
            <Array as="points" />
          </mxGeometry>
        </mxCell>
        <mxCell id="9dLmW2tlzqYbC5h6t_Pl-259" value="" style="group" vertex="1" connectable="0" parent="1">
          <mxGeometry x="510" y="-510" width="130" height="510" as="geometry" />
        </mxCell>
        <mxCell id="9dLmW2tlzqYbC5h6t_Pl-255" value="" style="group" vertex="1" connectable="0" parent="9dLmW2tlzqYbC5h6t_Pl-259">
          <mxGeometry width="130" height="510" as="geometry" />
        </mxCell>
        <mxCell id="9dLmW2tlzqYbC5h6t_Pl-254" value="" style="line;strokeWidth=1;rotatable=0;dashed=0;labelPosition=right;align=left;verticalAlign=middle;spacingTop=0;spacingLeft=6;points=[];portConstraint=eastwest;" vertex="1" parent="9dLmW2tlzqYbC5h6t_Pl-255">
          <mxGeometry x="-30" y="260" width="160" height="15.45" as="geometry" />
        </mxCell>
        <mxCell id="9dLmW2tlzqYbC5h6t_Pl-300" value="" style="endArrow=none;html=1;rounded=0;" edge="1" parent="9dLmW2tlzqYbC5h6t_Pl-255">
          <mxGeometry width="50" height="50" relative="1" as="geometry">
            <mxPoint x="-20" y="390" as="sourcePoint" />
            <mxPoint x="130" y="390" as="targetPoint" />
          </mxGeometry>
        </mxCell>
        <mxCell id="9dLmW2tlzqYbC5h6t_Pl-258" value="" style="endArrow=none;html=1;rounded=0;" edge="1" parent="9dLmW2tlzqYbC5h6t_Pl-259" source="9dLmW2tlzqYbC5h6t_Pl-87">
          <mxGeometry width="50" height="50" relative="1" as="geometry">
            <mxPoint x="-310" y="163.2" as="sourcePoint" />
            <mxPoint x="130" y="110" as="targetPoint" />
          </mxGeometry>
        </mxCell>
        <mxCell id="9dLmW2tlzqYbC5h6t_Pl-290" value="" style="endArrow=none;html=1;rounded=0;entryX=1;entryY=0.5;entryDx=0;entryDy=0;" edge="1" parent="1" source="9dLmW2tlzqYbC5h6t_Pl-88" target="9dLmW2tlzqYbC5h6t_Pl-285">
          <mxGeometry width="50" height="50" relative="1" as="geometry">
            <mxPoint x="470" y="-164" as="sourcePoint" />
            <mxPoint x="338" y="-193" as="targetPoint" />
            <Array as="points" />
          </mxGeometry>
        </mxCell>
        <mxCell id="9dLmW2tlzqYbC5h6t_Pl-298" value="" style="endArrow=none;html=1;rounded=0;" edge="1" parent="1" source="9dLmW2tlzqYbC5h6t_Pl-303" target="9dLmW2tlzqYbC5h6t_Pl-36">
          <mxGeometry width="50" height="50" relative="1" as="geometry">
            <mxPoint x="159.61409411605928" y="-117.95631848491485" as="sourcePoint" />
            <mxPoint x="50" y="-210" as="targetPoint" />
          </mxGeometry>
        </mxCell>
        <mxCell id="9dLmW2tlzqYbC5h6t_Pl-299" value="Delivery Employee" style="shape=umlActor;verticalLabelPosition=bottom;verticalAlign=top;html=1;outlineConnect=0;" vertex="1" parent="1">
          <mxGeometry x="454" y="-40" width="36" height="70" as="geometry" />
        </mxCell>
        <mxCell id="9dLmW2tlzqYbC5h6t_Pl-252" value="" style="endArrow=block;endSize=16;endFill=0;html=1;rounded=0;" edge="1" parent="1" source="9dLmW2tlzqYbC5h6t_Pl-299" target="9dLmW2tlzqYbC5h6t_Pl-4">
          <mxGeometry width="160" relative="1" as="geometry">
            <mxPoint x="620" y="-157.63636363636363" as="sourcePoint" />
            <mxPoint x="736" y="-278.1818181818182" as="targetPoint" />
            <Array as="points">
              <mxPoint x="640" y="-5" />
              <mxPoint x="640" y="-584" />
            </Array>
          </mxGeometry>
        </mxCell>
        <mxCell id="9dLmW2tlzqYbC5h6t_Pl-302" value="" style="endArrow=none;html=1;rounded=0;" edge="1" parent="1" source="9dLmW2tlzqYbC5h6t_Pl-88" target="9dLmW2tlzqYbC5h6t_Pl-284">
          <mxGeometry width="50" height="50" relative="1" as="geometry">
            <mxPoint x="469" y="-394" as="sourcePoint" />
            <mxPoint x="228.85714704380734" y="-365.827440301367" as="targetPoint" />
            <Array as="points" />
          </mxGeometry>
        </mxCell>
        <mxCell id="9dLmW2tlzqYbC5h6t_Pl-309" value="" style="endArrow=none;html=1;rounded=0;" edge="1" parent="1" source="9dLmW2tlzqYbC5h6t_Pl-308" target="9dLmW2tlzqYbC5h6t_Pl-299">
          <mxGeometry width="50" height="50" relative="1" as="geometry">
            <mxPoint x="119" y="-99" as="sourcePoint" />
            <mxPoint x="466" y="-124" as="targetPoint" />
          </mxGeometry>
        </mxCell>
        <mxCell id="9dLmW2tlzqYbC5h6t_Pl-314" value="" style="endArrow=none;html=1;rounded=0;" edge="1" parent="1" source="9dLmW2tlzqYbC5h6t_Pl-88" target="9dLmW2tlzqYbC5h6t_Pl-187">
          <mxGeometry width="50" height="50" relative="1" as="geometry">
            <mxPoint x="469" y="-377" as="sourcePoint" />
            <mxPoint x="247" y="-340" as="targetPoint" />
            <Array as="points" />
          </mxGeometry>
        </mxCell>
        <mxCell id="9dLmW2tlzqYbC5h6t_Pl-322" value="" style="endArrow=none;html=1;rounded=0;" edge="1" parent="1" source="9dLmW2tlzqYbC5h6t_Pl-88" target="9dLmW2tlzqYbC5h6t_Pl-319">
          <mxGeometry width="50" height="50" relative="1" as="geometry">
            <mxPoint x="460" y="-241" as="sourcePoint" />
            <mxPoint x="353" y="-323" as="targetPoint" />
            <Array as="points" />
          </mxGeometry>
        </mxCell>
        <mxCell id="9dLmW2tlzqYbC5h6t_Pl-324" value="" style="endArrow=none;html=1;rounded=0;" edge="1" parent="1" source="9dLmW2tlzqYbC5h6t_Pl-323" target="9dLmW2tlzqYbC5h6t_Pl-299">
          <mxGeometry width="50" height="50" relative="1" as="geometry">
            <mxPoint x="294" y="28" as="sourcePoint" />
            <mxPoint x="464" y="7" as="targetPoint" />
          </mxGeometry>
        </mxCell>
        <mxCell id="9dLmW2tlzqYbC5h6t_Pl-334" value="" style="endArrow=none;html=1;rounded=0;" edge="1" parent="1" source="9dLmW2tlzqYbC5h6t_Pl-4" target="9dLmW2tlzqYbC5h6t_Pl-333">
          <mxGeometry width="50" height="50" relative="1" as="geometry">
            <mxPoint x="480" y="-592" as="sourcePoint" />
            <mxPoint x="75" y="-663" as="targetPoint" />
            <Array as="points" />
          </mxGeometry>
        </mxCell>
        <mxCell id="9dLmW2tlzqYbC5h6t_Pl-335" value="System Notification" style="shape=umlActor;verticalLabelPosition=bottom;verticalAlign=top;html=1;outlineConnect=0;" vertex="1" parent="1">
          <mxGeometry x="-446" y="-275" width="33" height="70" as="geometry" />
        </mxCell>
        <mxCell id="9dLmW2tlzqYbC5h6t_Pl-339" value="" style="endArrow=none;html=1;rounded=0;" edge="1" parent="1" source="9dLmW2tlzqYbC5h6t_Pl-335" target="9dLmW2tlzqYbC5h6t_Pl-340">
          <mxGeometry width="50" height="50" relative="1" as="geometry">
            <mxPoint x="-403" y="-246" as="sourcePoint" />
            <mxPoint x="-157" y="-491" as="targetPoint" />
          </mxGeometry>
        </mxCell>
      </root>
    </mxGraphModel>
  </diagram>
</mxfile>
